<svg version="1.1" id="Layer_1" xmlns="http://www.w3.org/2000/svg" xmlns:xlink="http://www.w3.org/1999/xlink" x="0px" y="0px"
	 width="100%" viewBox="0 0 76 76" enable-background="new 0 0 76 76" xml:space="preserve">
<path fill="#1EB9D6" opacity="1.000000" stroke="none" 
	d="
M74.000000,77.000000 
	C49.709679,77.000000 25.419357,77.000000 1.064519,77.000000 
	C1.064519,51.754593 1.064519,26.508987 1.064519,1.131689 
	C26.332888,1.131689 51.666336,1.131689 77.000000,1.131689 
	C77.000000,8.421774 77.000000,15.742150 76.568962,23.531363 
	C73.154747,24.331713 70.171577,24.663227 67.110374,24.560659 
	C66.698257,20.813187 66.413315,17.493834 66.012383,14.188552 
	C65.755135,12.067745 66.660828,8.926013 62.890774,9.226565 
	C59.624973,9.486918 55.649136,7.370725 53.826561,12.698284 
	C50.004360,23.870977 45.648392,34.861099 41.509037,45.925228 
	C40.720081,48.034023 39.919399,50.138424 38.838955,53.000179 
	C33.799500,39.094364 29.010630,26.168394 24.477047,13.153500 
	C23.432659,10.155293 22.013594,8.712605 18.776814,9.108676 
	C16.994114,9.326818 15.162807,9.147731 12.632653,9.147731 
	C11.195610,28.178699 9.787941,46.820660 8.370555,65.591293 
	C11.659955,65.591293 14.194585,65.591293 16.905312,65.591293 
	C17.961243,51.584251 18.987146,37.975544 20.013048,24.366837 
	C24.982241,36.071102 29.086180,47.816509 33.329636,59.511299 
	C34.264606,62.088039 34.317009,65.295525 38.838551,65.171654 
	C42.981773,65.058136 43.154152,62.253788 44.092731,59.754177 
	C48.070068,49.161812 51.972843,38.541470 55.933826,27.942919 
	C56.399948,26.695702 57.057148,25.519896 57.625767,24.310984 
	C57.926048,24.394299 58.226330,24.477613 58.526615,24.560928 
	C59.734436,38.225239 60.942261,51.889553 62.163540,65.706093 
	C64.404839,65.886810 66.199684,66.031525 68.026947,66.534393 
	C70.039589,70.261696 72.019791,73.630844 74.000000,77.000000 
z"/>
<path fill="#1DB5D2" opacity="1.000000" stroke="none" 
	d="
M67.188400,24.994743 
	C70.171577,24.663227 73.154747,24.331713 76.568962,24.000099 
	C77.000000,40.666668 77.017166,57.333385 76.965904,73.999893 
	C76.961990,75.269592 78.085014,77.612228 74.500000,77.000000 
	C72.019791,73.630844 70.039589,70.261696 68.409286,66.461884 
	C69.310921,64.624084 70.428276,63.174370 70.326073,61.816452 
	C69.401611,49.533409 68.263733,37.266430 67.188400,24.994743 
z"/>
<path fill="#021182" opacity="1.000000" stroke="none" 
	d="
M67.110374,24.560659 
	C68.263733,37.266430 69.401611,49.533409 70.326073,61.816452 
	C70.428276,63.174370 69.310921,64.624084 68.376854,66.103729 
	C66.199684,66.031525 64.404839,65.886810 62.163540,65.706093 
	C60.942261,51.889553 59.734436,38.225239 58.526615,24.560928 
	C58.226330,24.477613 57.926048,24.394299 57.625767,24.310984 
	C57.057148,25.519896 56.399948,26.695702 55.933826,27.942919 
	C51.972843,38.541470 48.070068,49.161812 44.092731,59.754177 
	C43.154152,62.253788 42.981773,65.058136 38.838551,65.171654 
	C34.317009,65.295525 34.264606,62.088039 33.329636,59.511299 
	C29.086180,47.816509 24.982241,36.071102 20.013048,24.366837 
	C18.987146,37.975544 17.961243,51.584251 16.905312,65.591293 
	C14.194585,65.591293 11.659955,65.591293 8.370555,65.591293 
	C9.787941,46.820660 11.195610,28.178699 12.632653,9.147731 
	C15.162807,9.147731 16.994114,9.326818 18.776814,9.108676 
	C22.013594,8.712605 23.432659,10.155293 24.477047,13.153500 
	C29.010630,26.168394 33.799500,39.094364 38.838955,53.000179 
	C39.919399,50.138424 40.720081,48.034023 41.509037,45.925228 
	C45.648392,34.861099 50.004360,23.870977 53.826561,12.698284 
	C55.649136,7.370725 59.624973,9.486918 62.890774,9.226565 
	C66.660828,8.926013 65.755135,12.067745 66.012383,14.188552 
	C66.413315,17.493834 66.698257,20.813187 67.110374,24.560659 
z"/>
</svg>